<svg xmlns="http://www.w3.org/2000/svg" width="80" height="80" viewBox="0 0 80 80"><rect width="100%" height="100%" fill="#F7EAE7"/><path fill="#3D3D3D" d="M32.275 31.97h2.23v15.91h-2.6V37.61q0-.62.06-1.33l-4.8 9.03q-.35.65-1.05.65h-.42q-.7 0-1.04-.65l-4.86-9.07q.03.37.05.72t.02.65v10.27h-2.6V31.97h2.23q.2 0 .34.02.14.01.26.05.11.04.21.14.09.1.18.27l4.76 8.83q.19.35.35.73.16.37.31.77.16-.41.32-.79.17-.38.35-.73l4.7-8.81q.09-.17.19-.27t.21-.14q.12-.04.26-.05.14-.02.34-.02m4.95 14.41q0-.34.13-.65.12-.3.34-.52t.53-.35q.31-.14.66-.14t.66.14q.3.13.52.35.23.22.36.52.13.31.13.65 0 .36-.13.66t-.36.52q-.22.22-.52.35-.31.12-.66.12t-.66-.12q-.31-.13-.53-.35t-.34-.52q-.13-.3-.13-.66m17.24-14.41h2.22v15.91h-2.97v-9.97q0-.56.03-1.17.02-.62.12-1.31-.22.61-.48 1.14-.25.52-.5.92l-6.08 9.48q-.1.16-.24.33-.13.16-.3.29-.16.13-.36.21t-.41.08h-2.22V31.97h2.97v9.97q0 .56-.03 1.18-.02.62-.12 1.32.22-.62.47-1.15.26-.52.52-.92l6.07-9.48q.1-.17.23-.33.14-.17.31-.29.16-.13.35-.21.2-.09.42-.09m4.94 14.41q0-.34.12-.65.13-.3.35-.52t.53-.35q.31-.14.66-.14t.65.14q.3.13.53.35t.36.52q.13.31.13.65 0 .36-.13.66t-.36.52-.53.35q-.3.12-.65.12t-.66-.12q-.31-.13-.53-.35t-.35-.52q-.12-.3-.12-.66"/></svg>